<svg xmlns="http://www.w3.org/2000/svg" width="23" height="23" viewBox="0 0 23 23" fill="none">
    <path
        d="M22.7103 6.99621C22.6591 5.83451 22.4713 5.03585 22.2021 4.3438C21.9245 3.60921 21.4974 2.95153 20.9378 2.4048C20.3911 1.84956 19.7291 1.41811 19.003 1.14483C18.307 0.875721 17.5125 0.687861 16.3508 0.636641C15.1804 0.581084 14.8088 0.568237 11.8404 0.568237C8.87205 0.568237 8.5005 0.581084 7.33446 0.632303C6.17276 0.683523 5.37411 0.87155 4.68222 1.14049C3.94747 1.41811 3.28979 1.84522 2.74306 2.4048C2.18782 2.95153 1.75654 3.61355 1.48309 4.33963C1.21398 5.03585 1.02612 5.83017 0.974898 6.99187C0.919341 8.16224 0.906494 8.53379 0.906494 11.5022C0.906494 14.4706 0.919341 14.8421 0.97056 16.0082C1.02178 17.1699 1.20981 17.9685 1.47892 18.6606C1.75654 19.3952 2.18782 20.0528 2.74306 20.5996C3.28979 21.1548 3.9518 21.5863 4.67789 21.8595C5.37411 22.1287 6.16843 22.3165 7.33029 22.3677C8.49616 22.4191 8.86788 22.4318 11.8363 22.4318C14.8047 22.4318 15.1762 22.4191 16.3423 22.3677C17.504 22.3165 18.3026 22.1287 18.9945 21.8595C20.4638 21.2915 21.6255 20.1298 22.1936 18.6606C22.4626 17.9644 22.6506 17.1699 22.7018 16.0082C22.753 14.8421 22.7659 14.4706 22.7659 11.5022C22.7659 8.53379 22.7616 8.16224 22.7103 6.99621ZM20.7415 15.9228C20.6944 16.9905 20.5151 17.5671 20.3656 17.9515C19.9982 18.904 19.2423 19.6599 18.2898 20.0273C17.9054 20.1768 17.3246 20.3562 16.261 20.403C15.1078 20.4544 14.762 20.4671 11.8448 20.4671C8.92761 20.4671 8.57741 20.4544 7.42839 20.403C6.36062 20.3562 5.78403 20.1768 5.39963 20.0273C4.92564 19.8521 4.4942 19.5745 4.144 19.2115C3.78096 18.8569 3.50334 18.4298 3.32816 17.9559C3.17867 17.5715 2.99932 16.9905 2.95244 15.9271C2.90105 14.7739 2.88837 14.4279 2.88837 11.5107C2.88837 8.59352 2.90105 8.24333 2.95244 7.09447C2.99932 6.0267 3.17867 5.45011 3.32816 5.06571C3.50334 4.59156 3.78096 4.16028 4.14834 3.80992C4.50271 3.44688 4.92981 3.16926 5.40397 2.99424C5.78837 2.84475 6.3693 2.6654 7.43273 2.61835C8.58592 2.56713 8.93194 2.55429 11.849 2.55429C14.7705 2.55429 15.1163 2.56713 16.2653 2.61835C17.3331 2.6654 17.9097 2.84475 18.2941 2.99424C18.7681 3.16926 19.1995 3.44688 19.5497 3.80992C19.9128 4.16445 20.1904 4.59156 20.3656 5.06571C20.5151 5.45011 20.6944 6.03088 20.7415 7.09447C20.7927 8.24766 20.8055 8.59352 20.8055 11.5107C20.8055 14.4279 20.7927 14.7696 20.7415 15.9228Z"
        fill="white" />
    <path
        d="M11.8405 5.88574C8.73982 5.88574 6.22406 8.40134 6.22406 11.5022C6.22406 14.6031 8.73982 17.1187 11.8405 17.1187C14.9414 17.1187 17.457 14.6031 17.457 11.5022C17.457 8.40134 14.9414 5.88574 11.8405 5.88574ZM11.8405 15.1455C9.82895 15.1455 8.19726 13.5139 8.19726 11.5022C8.19726 9.49046 9.82895 7.85895 11.8405 7.85895C13.8523 7.85895 15.4838 9.49046 15.4838 11.5022C15.4838 13.5139 13.8523 15.1455 11.8405 15.1455Z"
        fill="white" />
    <path
        d="M18.9904 5.66373C18.9904 6.38781 18.4033 6.97491 17.679 6.97491C16.9549 6.97491 16.3678 6.38781 16.3678 5.66373C16.3678 4.93948 16.9549 4.35254 17.679 4.35254C18.4033 4.35254 18.9904 4.93948 18.9904 5.66373Z"
        fill="white" />
</svg>