<svg xmlns="http://www.w3.org/2000/svg" width="22" height="23" viewBox="0 0 22 23" fill="none">
    <path
        d="M21.901 22.4532V22.4523H21.9065V14.4181C21.9065 10.4877 21.0604 7.46008 16.4655 7.46008C14.2566 7.46008 12.7743 8.67224 12.1691 9.82141H12.1052V7.82702H7.74857V22.4523H12.285V15.2104C12.285 13.3036 12.6465 11.4598 15.0078 11.4598C17.3344 11.4598 17.3691 13.6359 17.3691 15.3327V22.4532H21.901Z"
        fill="white" />
    <path d="M0.361511 7.82788H4.90344V22.4532H0.361511V7.82788Z" fill="white" />
    <path
        d="M2.6306 0.546753C1.17838 0.546753 0 1.72514 0 3.17735C0 4.62956 1.17838 5.83259 2.6306 5.83259C4.08281 5.83259 5.26119 4.62956 5.26119 3.17735C5.26028 1.72514 4.0819 0.546753 2.6306 0.546753V0.546753Z"
        fill="white" />
</svg>